# Tiled2Unity generated file. Do not modify by hand.
# Wavefront file for 'pueblo_mesh_0004.obj'

# Vertices (Count = 412)
v -14.4 -3.2 0
v -16 -3.2 0
v -16 -1.6 0
v -14.4 -1.6 0
v -16 -3.2 0
v -17.6 -3.2 0
v -17.6 -1.6 0
v -16 -1.6 0
v -17.6 -3.2 0
v -19.2 -3.2 0
v -19.2 -1.6 0
v -17.6 -1.6 0
v -19.2 -3.2 0
v -20.8 -3.2 0
v -20.8 -1.6 0
v -19.2 -1.6 0
v -20.8 -3.2 0
v -22.4 -3.2 0
v -22.4 -1.6 0
v -20.8 -1.6 0
v -22.4 -3.2 0
v -24 -3.2 0
v -24 -1.6 0
v -22.4 -1.6 0
v -24 -3.2 0
v -25.6 -3.2 0
v -25.6 -1.6 0
v -24 -1.6 0
v -4.8 -4.8 0
v -6.4 -4.8 0
v -6.4 -3.2 0
v -4.8 -3.2 0
v -16 -4.8 0
v -17.6 -4.8 0
v -17.6 -3.2 0
v -16 -3.2 0
v -17.6 -4.8 0
v -19.2 -4.8 0
v -19.2 -3.2 0
v -17.6 -3.2 0
v -19.2 -4.8 0
v -20.8 -4.8 0
v -20.8 -3.2 0
v -19.2 -3.2 0
v -20.8 -4.8 0
v -22.4 -4.8 0
v -22.4 -3.2 0
v -20.8 -3.2 0
v -22.4 -4.8 0
v -24 -4.8 0
v -24 -3.2 0
v -22.4 -3.2 0
v -24 -4.8 0
v -25.6 -4.8 0
v -25.6 -3.2 0
v -24 -3.2 0
v -25.6 -4.8 0
v -27.2 -4.8 0
v -27.2 -3.2 0
v -25.6 -3.2 0
v -4.8 -6.4 0
v -6.4 -6.4 0
v -6.4 -4.8 0
v -4.8 -4.8 0
v -6.4 -6.4 0
v -8 -6.4 0
v -8 -4.8 0
v -6.4 -4.8 0
v -12.8 -6.4 0
v -14.4 -6.4 0
v -14.4 -4.8 0
v -12.8 -4.8 0
v -14.4 -6.4 0
v -16 -6.4 0
v -16 -4.8 0
v -14.4 -4.8 0
v -16 -6.4 0
v -17.6 -6.4 0
v -17.6 -4.8 0
v -16 -4.8 0
v -17.6 -6.4 0
v -19.2 -6.4 0
v -19.2 -4.8 0
v -17.6 -4.8 0
v -19.2 -6.4 0
v -20.8 -6.4 0
v -20.8 -4.8 0
v -19.2 -4.8 0
v -22.4 -6.4 0
v -24 -6.4 0
v -24 -4.8 0
v -22.4 -4.8 0
v -4.8 -8 0
v -6.4 -8 0
v -6.4 -6.4 0
v -4.8 -6.4 0
v -6.4 -8 0
v -8 -8 0
v -8 -6.4 0
v -6.4 -6.4 0
v -9.6 -8 0
v -11.2 -8 0
v -11.2 -6.4 0
v -9.6 -6.4 0
v -11.2 -8 0
v -12.8 -8 0
v -12.8 -6.4 0
v -11.2 -6.4 0
v -12.8 -8 0
v -14.4 -8 0
v -14.4 -6.4 0
v -12.8 -6.4 0
v -14.4 -8 0
v -16 -8 0
v -16 -6.4 0
v -14.4 -6.4 0
v -16 -8 0
v -17.6 -8 0
v -17.6 -6.4 0
v -16 -6.4 0
v -17.6 -8 0
v -19.2 -8 0
v -19.2 -6.4 0
v -17.6 -6.4 0
v -22.4 -8 0
v -24 -8 0
v -24 -6.4 0
v -22.4 -6.4 0
v -4.8 -9.6 0
v -6.4 -9.6 0
v -6.4 -8 0
v -4.8 -8 0
v -6.4 -9.6 0
v -8 -9.6 0
v -8 -8 0
v -6.4 -8 0
v -8 -9.6 0
v -9.6 -9.6 0
v -9.6 -8 0
v -8 -8 0
v -9.6 -9.6 0
v -11.2 -9.6 0
v -11.2 -8 0
v -9.6 -8 0
v -11.2 -9.6 0
v -12.8 -9.6 0
v -12.8 -8 0
v -11.2 -8 0
v -12.8 -9.6 0
v -14.4 -9.6 0
v -14.4 -8 0
v -12.8 -8 0
v -14.4 -9.6 0
v -16 -9.6 0
v -16 -8 0
v -14.4 -8 0
v -16 -9.6 0
v -17.6 -9.6 0
v -17.6 -8 0
v -16 -8 0
v -17.6 -9.6 0
v -19.2 -9.6 0
v -19.2 -8 0
v -17.6 -8 0
v -19.2 -9.6 0
v -20.8 -9.6 0
v -20.8 -8 0
v -19.2 -8 0
v -20.8 -9.6 0
v -22.4 -9.6 0
v -22.4 -8 0
v -20.8 -8 0
v -22.4 -9.6 0
v -24 -9.6 0
v -24 -8 0
v -22.4 -8 0
v -4.8 -11.2 0
v -6.4 -11.2 0
v -6.4 -9.6 0
v -4.8 -9.6 0
v -6.4 -11.2 0
v -8 -11.2 0
v -8 -9.6 0
v -6.4 -9.6 0
v -9.6 -11.2 0
v -11.2 -11.2 0
v -11.2 -9.6 0
v -9.6 -9.6 0
v -11.2 -11.2 0
v -12.8 -11.2 0
v -12.8 -9.6 0
v -11.2 -9.6 0
v -12.8 -11.2 0
v -14.4 -11.2 0
v -14.4 -9.6 0
v -12.8 -9.6 0
v -14.4 -11.2 0
v -16 -11.2 0
v -16 -9.6 0
v -14.4 -9.6 0
v -16 -11.2 0
v -17.6 -11.2 0
v -17.6 -9.6 0
v -16 -9.6 0
v -17.6 -11.2 0
v -19.2 -11.2 0
v -19.2 -9.6 0
v -17.6 -9.6 0
v -20.8 -11.2 0
v -22.4 -11.2 0
v -22.4 -9.6 0
v -20.8 -9.6 0
v -22.4 -11.2 0
v -24 -11.2 0
v -24 -9.6 0
v -22.4 -9.6 0
v -4.8 -12.8 0
v -6.4 -12.8 0
v -6.4 -11.2 0
v -4.8 -11.2 0
v -6.4 -12.8 0
v -8 -12.8 0
v -8 -11.2 0
v -6.4 -11.2 0
v -8 -12.8 0
v -9.6 -12.8 0
v -9.6 -11.2 0
v -8 -11.2 0
v -9.6 -12.8 0
v -11.2 -12.8 0
v -11.2 -11.2 0
v -9.6 -11.2 0
v -20.8 -12.8 0
v -22.4 -12.8 0
v -22.4 -11.2 0
v -20.8 -11.2 0
v -22.4 -12.8 0
v -24 -12.8 0
v -24 -11.2 0
v -22.4 -11.2 0
v -24 -12.8 0
v -25.6 -12.8 0
v -25.6 -11.2 0
v -24 -11.2 0
v -25.6 -12.8 0
v -27.2 -12.8 0
v -27.2 -11.2 0
v -25.6 -11.2 0
v -4.8 -14.4 0
v -6.4 -14.4 0
v -6.4 -12.8 0
v -4.8 -12.8 0
v -6.4 -14.4 0
v -8 -14.4 0
v -8 -12.8 0
v -6.4 -12.8 0
v -8 -14.4 0
v -9.6 -14.4 0
v -9.6 -12.8 0
v -8 -12.8 0
v -9.6 -14.4 0
v -11.2 -14.4 0
v -11.2 -12.8 0
v -9.6 -12.8 0
v -11.2 -14.4 0
v -12.8 -14.4 0
v -12.8 -12.8 0
v -11.2 -12.8 0
v -14.4 -14.4 0
v -16 -14.4 0
v -16 -12.8 0
v -14.4 -12.8 0
v -16 -14.4 0
v -17.6 -14.4 0
v -17.6 -12.8 0
v -16 -12.8 0
v -17.6 -14.4 0
v -19.2 -14.4 0
v -19.2 -12.8 0
v -17.6 -12.8 0
v -19.2 -14.4 0
v -20.8 -14.4 0
v -20.8 -12.8 0
v -19.2 -12.8 0
v -20.8 -14.4 0
v -22.4 -14.4 0
v -22.4 -12.8 0
v -20.8 -12.8 0
v -22.4 -14.4 0
v -24 -14.4 0
v -24 -12.8 0
v -22.4 -12.8 0
v -24 -14.4 0
v -25.6 -14.4 0
v -25.6 -12.8 0
v -24 -12.8 0
v -25.6 -14.4 0
v -27.2 -14.4 0
v -27.2 -12.8 0
v -25.6 -12.8 0
v -4.8 -16 0
v -6.4 -16 0
v -6.4 -14.4 0
v -4.8 -14.4 0
v -6.4 -16 0
v -8 -16 0
v -8 -14.4 0
v -6.4 -14.4 0
v -8 -16 0
v -9.6 -16 0
v -9.6 -14.4 0
v -8 -14.4 0
v -9.6 -16 0
v -11.2 -16 0
v -11.2 -14.4 0
v -9.6 -14.4 0
v -11.2 -16 0
v -12.8 -16 0
v -12.8 -14.4 0
v -11.2 -14.4 0
v -12.8 -16 0
v -14.4 -16 0
v -14.4 -14.4 0
v -12.8 -14.4 0
v -14.4 -16 0
v -16 -16 0
v -16 -14.4 0
v -14.4 -14.4 0
v -16 -16 0
v -17.6 -16 0
v -17.6 -14.4 0
v -16 -14.4 0
v -17.6 -16 0
v -19.2 -16 0
v -19.2 -14.4 0
v -17.6 -14.4 0
v -19.2 -16 0
v -20.8 -16 0
v -20.8 -14.4 0
v -19.2 -14.4 0
v -20.8 -16 0
v -22.4 -16 0
v -22.4 -14.4 0
v -20.8 -14.4 0
v -22.4 -16 0
v -24 -16 0
v -24 -14.4 0
v -22.4 -14.4 0
v -24 -16 0
v -25.6 -16 0
v -25.6 -14.4 0
v -24 -14.4 0
v -25.6 -16 0
v -27.2 -16 0
v -27.2 -14.4 0
v -25.6 -14.4 0
v -4.8 -17.6 0
v -6.4 -17.6 0
v -6.4 -16 0
v -4.8 -16 0
v -6.4 -17.6 0
v -8 -17.6 0
v -8 -16 0
v -6.4 -16 0
v -8 -17.6 0
v -9.6 -17.6 0
v -9.6 -16 0
v -8 -16 0
v -9.6 -17.6 0
v -11.2 -17.6 0
v -11.2 -16 0
v -9.6 -16 0
v -11.2 -17.6 0
v -12.8 -17.6 0
v -12.8 -16 0
v -11.2 -16 0
v -12.8 -17.6 0
v -14.4 -17.6 0
v -14.4 -16 0
v -12.8 -16 0
v -14.4 -17.6 0
v -16 -17.6 0
v -16 -16 0
v -14.4 -16 0
v -16 -17.6 0
v -17.6 -17.6 0
v -17.6 -16 0
v -16 -16 0
v -17.6 -17.6 0
v -19.2 -17.6 0
v -19.2 -16 0
v -17.6 -16 0
v -19.2 -17.6 0
v -20.8 -17.6 0
v -20.8 -16 0
v -19.2 -16 0
v -20.8 -17.6 0
v -22.4 -17.6 0
v -22.4 -16 0
v -20.8 -16 0
v -22.4 -17.6 0
v -24 -17.6 0
v -24 -16 0
v -22.4 -16 0
v -24 -17.6 0
v -25.6 -17.6 0
v -25.6 -16 0
v -24 -16 0
v -25.6 -17.6 0
v -27.2 -17.6 0
v -27.2 -16 0
v -25.6 -16 0

# Texture cooridinates (Count = 30)
vt 0.125 0.6944444
vt 0.15 0.6944444
vt 0.15 0.7222222
vt 0.125 0.7222222
vt 0.1 0.6944444
vt 0.1 0.7222222
vt 0.15 0.75
vt 0.125 0.75
vt 0.175 0.6944444
vt 0.175 0.7222222
vt 0.275 0.8333333
vt 0.3 0.8333333
vt 0.3 0.8611111
vt 0.275 0.8611111
vt 0.325 0.8333333
vt 0.325 0.8611111
vt 0.3 0.8055556
vt 0.325 0.8055556
vt 0.1 0.6666666
vt 0.125 0.6666666
vt 0.15 0.6666666
vt 0.175 0.6666666
vt 0.1 0.5833334
vt 0.125 0.5833334
vt 0.125 0.6111111
vt 0.1 0.6111111
vt 0.15 0.5833334
vt 0.15 0.6111111
vt 0.175 0.5833334
vt 0.175 0.6111111

# Normal
vn 0 0 -1

# Mesh description
g pueblo_mesh_0004

# Faces
f 1/1/1 2/2/1 3/3/1 4/4/1
f 5/1/1 6/2/1 7/3/1 8/4/1
f 9/1/1 10/2/1 11/3/1 12/4/1
f 13/1/1 14/2/1 15/3/1 16/4/1
f 17/1/1 18/2/1 19/3/1 20/4/1
f 21/1/1 22/2/1 23/3/1 24/4/1
f 25/1/1 26/2/1 27/3/1 28/4/1
f 29/5/1 30/1/1 31/4/1 32/6/1
f 33/1/1 34/2/1 35/3/1 36/4/1
f 37/1/1 38/2/1 39/3/1 40/4/1
f 41/1/1 42/2/1 43/3/1 44/4/1
f 45/1/1 46/2/1 47/3/1 48/4/1
f 49/1/1 50/2/1 51/3/1 52/4/1
f 53/1/1 54/2/1 55/3/1 56/4/1
f 57/1/1 58/2/1 59/3/1 60/4/1
f 61/5/1 62/1/1 63/4/1 64/6/1
f 65/4/1 66/3/1 67/7/1 68/8/1
f 69/4/1 70/3/1 71/7/1 72/8/1
f 73/4/1 74/3/1 75/7/1 76/8/1
f 77/1/1 78/2/1 79/3/1 80/4/1
f 81/4/1 82/3/1 83/7/1 84/8/1
f 85/1/1 86/2/1 87/3/1 88/4/1
f 89/1/1 90/2/1 91/3/1 92/4/1
f 93/5/1 94/1/1 95/4/1 96/6/1
f 97/4/1 98/3/1 99/7/1 100/8/1
f 101/4/1 102/3/1 103/7/1 104/8/1
f 105/4/1 106/3/1 107/7/1 108/8/1
f 109/4/1 110/3/1 111/7/1 112/8/1
f 113/4/1 114/3/1 115/7/1 116/8/1
f 117/4/1 118/3/1 119/7/1 120/8/1
f 121/4/1 122/3/1 123/7/1 124/8/1
f 125/1/1 126/2/1 127/3/1 128/4/1
f 129/5/1 130/1/1 131/4/1 132/6/1
f 133/4/1 134/3/1 135/7/1 136/8/1
f 137/4/1 138/3/1 139/7/1 140/8/1
f 141/4/1 142/3/1 143/7/1 144/8/1
f 145/4/1 146/3/1 147/7/1 148/8/1
f 149/4/1 150/3/1 151/7/1 152/8/1
f 153/4/1 154/3/1 155/7/1 156/8/1
f 157/4/1 158/3/1 159/7/1 160/8/1
f 161/1/1 162/2/1 163/3/1 164/4/1
f 165/1/1 166/2/1 167/3/1 168/4/1
f 169/1/1 170/2/1 171/3/1 172/4/1
f 173/1/1 174/2/1 175/3/1 176/4/1
f 177/5/1 178/1/1 179/4/1 180/6/1
f 181/4/1 182/3/1 183/7/1 184/8/1
f 185/4/1 186/3/1 187/7/1 188/8/1
f 189/4/1 190/3/1 191/7/1 192/8/1
f 193/4/1 194/3/1 195/7/1 196/8/1
f 197/4/1 198/3/1 199/7/1 200/8/1
f 201/4/1 202/3/1 203/7/1 204/8/1
f 205/4/1 206/3/1 207/7/1 208/8/1
f 209/1/1 210/2/1 211/3/1 212/4/1
f 213/1/1 214/2/1 215/3/1 216/4/1
f 217/5/1 218/1/1 219/4/1 220/6/1
f 221/4/1 222/3/1 223/7/1 224/8/1
f 225/4/1 226/3/1 227/7/1 228/8/1
f 229/4/1 230/3/1 231/7/1 232/8/1
f 233/1/1 234/2/1 235/3/1 236/4/1
f 237/1/1 238/2/1 239/3/1 240/4/1
f 241/1/1 242/2/1 243/3/1 244/4/1
f 245/1/1 246/2/1 247/3/1 248/4/1
f 249/5/1 250/1/1 251/4/1 252/6/1
f 253/4/1 254/3/1 255/7/1 256/8/1
f 257/4/1 258/3/1 259/7/1 260/8/1
f 261/4/1 262/3/1 263/7/1 264/8/1
f 265/4/1 266/3/1 267/7/1 268/8/1
f 269/2/1 270/9/1 271/10/1 272/3/1
f 273/11/1 274/12/1 275/13/1 276/14/1
f 277/12/1 278/15/1 279/16/1 280/13/1
f 281/17/1 282/18/1 283/15/1 284/12/1
f 285/5/1 286/1/1 287/4/1 288/6/1
f 289/4/1 290/3/1 291/7/1 292/8/1
f 293/4/1 294/3/1 295/7/1 296/8/1
f 297/1/1 298/2/1 299/3/1 300/4/1
f 301/19/1 302/20/1 303/1/1 304/5/1
f 305/20/1 306/21/1 307/2/1 308/1/1
f 309/20/1 310/21/1 311/2/1 312/1/1
f 313/20/1 314/21/1 315/2/1 316/1/1
f 317/20/1 318/21/1 319/2/1 320/1/1
f 321/20/1 322/21/1 323/2/1 324/1/1
f 325/21/1 326/22/1 327/9/1 328/2/1
f 329/11/1 330/12/1 331/13/1 332/14/1
f 333/12/1 334/15/1 335/16/1 336/13/1
f 337/17/1 338/18/1 339/15/1 340/12/1
f 341/19/1 342/20/1 343/1/1 344/5/1
f 345/20/1 346/21/1 347/2/1 348/1/1
f 349/20/1 350/21/1 351/2/1 352/1/1
f 353/21/1 354/22/1 355/9/1 356/2/1
f 357/23/1 358/24/1 359/25/1 360/26/1
f 361/24/1 362/27/1 363/28/1 364/25/1
f 365/24/1 366/27/1 367/28/1 368/25/1
f 369/24/1 370/27/1 371/28/1 372/25/1
f 373/24/1 374/27/1 375/28/1 376/25/1
f 377/24/1 378/27/1 379/28/1 380/25/1
f 381/27/1 382/29/1 383/30/1 384/28/1
f 385/11/1 386/12/1 387/13/1 388/14/1
f 389/12/1 390/15/1 391/16/1 392/13/1
f 393/17/1 394/18/1 395/15/1 396/12/1
f 397/23/1 398/24/1 399/25/1 400/26/1
f 401/24/1 402/27/1 403/28/1 404/25/1
f 405/24/1 406/27/1 407/28/1 408/25/1
f 409/27/1 410/29/1 411/30/1 412/28/1

