# Tiled2Unity generated file. Do not modify by hand.
# Wavefront file for 'pueblo_mesh_0005.obj'

# Vertices (Count = 88)
v -4.8 -3.2 0
v -6.4 -3.2 0
v -6.4 -1.6 0
v -4.8 -1.6 0
v -6.4 -3.2 0
v -8 -3.2 0
v -8 -1.6 0
v -6.4 -1.6 0
v -17.6 -3.2 0
v -19.2 -3.2 0
v -19.2 -1.6 0
v -17.6 -1.6 0
v -19.2 -3.2 0
v -20.8 -3.2 0
v -20.8 -1.6 0
v -19.2 -1.6 0
v -20.8 -3.2 0
v -22.4 -3.2 0
v -22.4 -1.6 0
v -20.8 -1.6 0
v -22.4 -3.2 0
v -24 -3.2 0
v -24 -1.6 0
v -22.4 -1.6 0
v -4.8 -4.8 0
v -6.4 -4.8 0
v -6.4 -3.2 0
v -4.8 -3.2 0
v -6.4 -4.8 0
v -8 -4.8 0
v -8 -3.2 0
v -6.4 -3.2 0
v -17.6 -4.8 0
v -19.2 -4.8 0
v -19.2 -3.2 0
v -17.6 -3.2 0
v -19.2 -4.8 0
v -20.8 -4.8 0
v -20.8 -3.2 0
v -19.2 -3.2 0
v -20.8 -4.8 0
v -22.4 -4.8 0
v -22.4 -3.2 0
v -20.8 -3.2 0
v -22.4 -4.8 0
v -24 -4.8 0
v -24 -3.2 0
v -22.4 -3.2 0
v -20.8 -6.4 0
v -22.4 -6.4 0
v -22.4 -4.8 0
v -20.8 -4.8 0
v -22.4 -6.4 0
v -24 -6.4 0
v -24 -4.8 0
v -22.4 -4.8 0
v -20.8 -8 0
v -22.4 -8 0
v -22.4 -6.4 0
v -20.8 -6.4 0
v -22.4 -8 0
v -24 -8 0
v -24 -6.4 0
v -22.4 -6.4 0
v -20.8 -9.6 0
v -22.4 -9.6 0
v -22.4 -8 0
v -20.8 -8 0
v -22.4 -9.6 0
v -24 -9.6 0
v -24 -8 0
v -22.4 -8 0
v -3.2 -17.6 0
v -4.8 -17.6 0
v -4.8 -16 0
v -3.2 -16 0
v -4.8 -17.6 0
v -6.4 -17.6 0
v -6.4 -16 0
v -4.8 -16 0
v -3.2 -19.2 0
v -4.8 -19.2 0
v -4.8 -17.6 0
v -3.2 -17.6 0
v -4.8 -19.2 0
v -6.4 -19.2 0
v -6.4 -17.6 0
v -4.8 -17.6 0

# Texture cooridinates (Count = 45)
vt 0.225 0.6666666
vt 0.25 0.6666666
vt 0.25 0.6944444
vt 0.225 0.6944444
vt 0.275 0.6666666
vt 0.275 0.6944444
vt 0.65 0.4166667
vt 0.675 0.4166667
vt 0.675 0.4444444
vt 0.65 0.4444444
vt 0.7 0.4166667
vt 0.7 0.4444444
vt 0.725 0.4166667
vt 0.725 0.4444444
vt 0.75 0.4166667
vt 0.75 0.4444444
vt 0.225 0.6388889
vt 0.25 0.6388889
vt 0.275 0.6388889
vt 0.65 0.3888889
vt 0.675 0.3888889
vt 0.7 0.3888889
vt 0.725 0.3888889
vt 0.75 0.3888889
vt 0.2 0.1111111
vt 0.225 0.1111111
vt 0.225 0.1388889
vt 0.2 0.1388889
vt 0.25 0.1111111
vt 0.25 0.1388889
vt 0.2 0.08333331
vt 0.225 0.08333331
vt 0.25 0.08333331
vt 0.2 0.05555558
vt 0.225 0.05555558
vt 0.25 0.05555558
vt 0.1 0.9444444
vt 0.125 0.9444444
vt 0.125 0.9722222
vt 0.1 0.9722222
vt 0.15 0.9444444
vt 0.15 0.9722222
vt 0.1 0.9166667
vt 0.125 0.9166667
vt 0.15 0.9166667

# Normal
vn 0 0 -1

# Mesh description
g pueblo_mesh_0005

# Faces
f 1/1/1 2/2/1 3/3/1 4/4/1
f 5/2/1 6/5/1 7/6/1 8/3/1
f 9/7/1 10/8/1 11/9/1 12/10/1
f 13/8/1 14/11/1 15/12/1 16/9/1
f 17/11/1 18/13/1 19/14/1 20/12/1
f 21/13/1 22/15/1 23/16/1 24/14/1
f 25/17/1 26/18/1 27/2/1 28/1/1
f 29/18/1 30/19/1 31/5/1 32/2/1
f 33/20/1 34/21/1 35/8/1 36/7/1
f 37/21/1 38/22/1 39/11/1 40/8/1
f 41/22/1 42/23/1 43/13/1 44/11/1
f 45/23/1 46/24/1 47/15/1 48/13/1
f 49/25/1 50/26/1 51/27/1 52/28/1
f 53/26/1 54/29/1 55/30/1 56/27/1
f 57/31/1 58/32/1 59/26/1 60/25/1
f 61/32/1 62/33/1 63/29/1 64/26/1
f 65/34/1 66/35/1 67/32/1 68/31/1
f 69/35/1 70/36/1 71/33/1 72/32/1
f 73/37/1 74/38/1 75/39/1 76/40/1
f 77/38/1 78/41/1 79/42/1 80/39/1
f 81/43/1 82/44/1 83/38/1 84/37/1
f 85/44/1 86/45/1 87/41/1 88/38/1

